<svg width="1356" height="389" viewBox="0 0 1356 389" fill="none" xmlns="http://www.w3.org/2000/svg">
<g filter="url(#filter0_d_41_30)">
<path d="M200.041 21.8967C204.95 21.8967 209.661 22.1946 214.173 22.7906C216.385 23.0828 217.84 25.2017 217.417 27.3927C211.917 55.893 205.957 83.7801 199.537 111.054C193.154 139.598 186.435 167.974 179.38 196.182C172.325 224.39 165.103 252.765 157.712 281.309C150.569 308.572 143.112 336.305 135.341 364.508C134.863 366.243 133.285 367.442 131.489 367.547C129.003 367.693 125.818 367.995 121.933 368.452C116.222 369.123 109.839 369.459 102.784 369.459C95.3934 369.459 87.8346 369.123 80.1078 368.452C73.6532 368.158 67.9672 367.353 63.0499 366.035C61.7387 365.684 60.7391 364.64 60.3773 363.332C45.5221 309.595 33.2859 254.55 23.6686 198.196C13.9261 140.773 6.70327 83.0139 2 24.919C2 24.5939 2.1123 24.2765 2.34145 24.046C4.48673 21.888 8.74023 20.332 15.102 19.3781C21.8209 18.3707 29.0438 17.867 36.7706 17.867C44.4974 17.5312 51.8882 17.5312 58.9431 17.867C64.1981 18.1171 68.2415 18.4604 71.0733 18.8969C72.6011 19.1323 73.7575 20.341 74.0014 21.8674C75.0875 28.6656 75.7792 38.7496 76.0764 52.1195C76.4124 67.2309 77.2523 85.3646 78.5961 106.521C79.9398 127.677 82.1235 151.015 85.147 176.537C87.8369 196.971 91.6036 217.944 96.4471 239.455C97.3701 243.554 103.065 243.53 103.987 239.431C108.702 218.48 112.669 199.027 115.886 181.07C119.918 158.235 123.445 137.247 126.469 118.106C129.492 98.9649 132.348 81.3349 135.035 65.2161C137.691 49.2868 140.839 34.3414 144.48 20.3798C144.566 20.0488 144.565 19.693 144.697 19.3771C144.785 19.1656 144.939 19.0209 145.161 18.9429C145.451 18.8404 145.769 18.9104 146.07 18.9796C151.639 20.2616 157.367 21.066 163.255 21.393C169.302 21.393 175.349 21.393 181.396 21.393C187.779 21.393 193.994 21.5609 200.041 21.8967Z" fill="white"/>
<path d="M411.003 39.0229C420.746 47.754 427.632 57.9962 431.664 69.7495C434.015 74.7866 435.695 79.9917 436.703 85.3646C438.047 90.4017 439.055 95.6068 439.727 100.98C440.398 109.375 440.734 117.77 440.734 126.165C441.07 134.225 441.07 142.452 440.734 150.847C439.727 168.645 439.391 185.939 439.727 202.73C440.062 219.52 439.559 236.647 438.215 254.109L436.703 270.731C436.031 282.485 434.183 294.406 431.16 306.495C428.136 318.248 423.601 328.994 417.554 338.733C411.843 346.792 404.284 353.34 394.878 358.377C385.807 363.079 376.064 366.773 365.65 369.459C356.244 372.146 346.669 373.825 336.927 374.496C327.52 375.168 317.946 375.168 308.203 374.496C301.148 373.825 294.261 372.817 287.542 371.474C281.159 370.467 274.944 368.62 268.897 365.933C263.186 363.247 257.979 359.889 253.276 355.859C248.572 351.493 244.709 345.952 241.685 339.236C236.982 330.841 233.791 321.942 232.111 312.539C230.767 302.801 229.927 293.063 229.591 283.324C228.583 257.131 227.408 230.938 226.064 204.745C225.056 178.216 225.392 151.687 227.072 125.158C227.408 110.047 229.255 94.9352 232.615 79.8238C236.31 64.3765 243.365 50.7763 253.78 39.0229C257.139 35.6648 261.002 32.6426 265.37 29.9561C276.456 24.5832 288.382 20.7214 301.148 18.3707C314.25 15.6842 327.184 14.6768 339.95 15.3484C353.052 16.02 365.65 18.3707 377.744 22.4004C390.174 26.0943 401.261 31.6351 411.003 39.0229ZM377.744 216.834V192.656L376.736 158.403C376.736 158.067 376.4 154.709 375.729 148.329C375.393 141.613 375.057 135.4 374.721 129.691C374.049 120.289 371.361 111.726 366.658 104.002C362.291 96.2784 356.244 90.5696 348.517 86.8757C341.798 84.1893 334.911 83.6855 327.856 85.3646C320.801 87.0436 314.586 89.898 309.211 93.9277C297.453 102.995 289.558 114.58 285.527 128.684C282.839 141.445 281.159 154.877 280.487 168.981C280.151 183.085 280.319 197.189 280.991 211.293C282.671 223.046 283.847 235.135 284.519 247.56C285.184 259.531 287.167 271.008 290.468 281.991C290.533 282.208 290.616 282.419 290.719 282.62C294.073 289.19 298.893 294.294 305.18 297.932C311.563 301.626 318.449 303.808 325.84 304.48C333.231 304.816 340.622 303.808 348.013 301.458C355.404 298.771 361.619 294.574 366.658 288.865C369.681 284.835 371.865 281.645 373.209 279.294C374.553 276.608 375.393 273.754 375.729 270.731C376.064 267.709 376.064 264.183 375.729 260.153C375.729 255.788 376.064 250.079 376.736 243.027C377.072 236.311 377.24 230.434 377.24 225.397C377.576 220.36 377.744 217.506 377.744 216.834Z" fill="white"/>
<path d="M628.898 30.9635C638.976 38.6871 647.039 47.4182 653.086 57.1566C660.477 68.5742 666.524 80.4954 671.227 92.9203C676.266 105.009 680.298 117.77 683.321 131.203C685.001 136.575 686.009 141.948 686.345 147.321C687.017 152.359 687.521 157.564 687.857 162.937C687.185 178.72 686.513 194.67 685.841 210.789C685.505 226.548 683.83 242.14 680.816 257.564C680.806 257.611 680.803 257.659 680.799 257.707C680.789 257.829 680.753 257.925 680.692 257.995C680.534 258.175 680.298 258.271 680.298 258.51C680.298 258.557 680.29 258.665 680.275 258.71C673.558 278.498 664.327 297.28 652.582 315.058C641.504 332.32 629.794 348.634 617.452 364C616.722 364.909 615.63 365.45 614.465 365.485C592.895 366.129 571.166 366.614 549.278 366.941C526.813 366.941 505.017 366.941 483.89 366.941C483.812 366.941 483.809 366.9 483.754 366.955C483.582 367.127 483.217 367.1 483.183 366.859C479.535 340.513 477.21 313.34 476.21 285.339C475.202 256.795 474.698 227.916 474.698 198.7C474.698 169.485 474.866 140.102 475.202 110.55C475.869 80.8635 475.874 51.508 475.215 22.4839C475.207 22.1087 475.418 21.7215 475.584 21.3849C475.745 21.0581 475.85 20.7446 476.108 20.4871C476.175 20.4199 476.243 20.3526 476.31 20.2854C476.574 20.0213 476.905 19.8337 477.268 19.7444C486.503 17.4722 496.06 16.0068 505.941 15.3484C516.355 14.341 526.77 14.0052 537.184 14.341C547.599 14.341 557.845 14.5089 567.923 14.8447C578.138 15.174 588.029 15.1804 597.597 14.8637C597.97 14.8513 598.342 14.8898 598.703 14.9833C609.255 17.7136 619.32 23.0404 628.898 30.9635ZM599.67 249.072C602.358 246.049 604.71 243.027 606.725 240.005C612.436 231.274 616.468 221.703 618.819 211.293C621.507 200.883 621.507 189.465 618.819 177.04C617.812 172.003 616.636 166.798 615.292 161.425C613.948 155.717 611.932 150.344 609.245 145.307C606.893 140.269 603.87 135.904 600.174 132.21C596.57 128.28 592.007 125.307 586.485 123.294C586.206 123.192 585.916 123.125 585.622 123.092C580.032 122.454 573.965 122.136 567.419 122.136C560.754 121.803 554.42 122.296 548.416 123.615C548.319 123.636 548.22 123.647 548.121 123.647C547.369 123.647 546.759 124.257 546.759 125.009V125.662C547.43 134.729 547.766 144.467 547.766 154.877C547.766 165.287 547.598 176.201 547.263 187.618C546.927 198.7 546.759 210.118 546.759 221.871C546.759 232.746 547.063 243.62 547.673 254.495C547.731 255.539 548.186 256.536 549.026 257.159C552.58 259.79 557.199 260.956 562.884 260.657C569.375 260.333 575.552 259.851 581.416 259.214C581.825 259.169 582.238 259.194 582.646 259.247C583.951 259.416 585.149 259.265 586.241 258.794C586.462 258.699 586.664 258.569 586.859 258.429C588.048 257.574 589.364 256.846 590.807 256.245C591.004 256.163 591.196 256.069 591.378 255.958C594.619 253.98 597.383 251.685 599.67 249.072Z" fill="white"/>
<path d="M806.491 89.3943C801.787 90.4017 798.092 92.2487 795.404 94.9352C794.733 95.6068 794.061 96.7821 793.389 98.4612C793.053 99.8044 792.717 100.812 792.381 101.483C791.709 102.491 791.037 108.368 790.365 119.113C790.029 129.859 789.693 142.62 789.357 157.396C789.021 172.171 788.853 187.618 788.853 203.737C788.853 219.52 789.357 233.289 790.365 245.042C791.373 254.78 793.893 264.351 797.924 273.754C802.24 282.713 809.179 288.557 818.743 291.287C818.972 291.352 819.208 291.395 819.446 291.415C826.701 292.022 833.469 291.004 839.75 288.361C846.468 285.339 851.508 280.47 854.867 273.754C858.563 266.03 860.074 257.97 859.402 249.575C859.116 242.131 859.562 234.808 860.741 227.608C861.084 225.513 863.062 224.132 865.177 224.307C868.855 224.611 872.809 224.638 877.04 224.39C883.087 224.054 889.134 223.886 895.181 223.886C901.228 223.886 907.107 224.054 912.818 224.39C918.003 224.677 922.693 225.336 926.89 226.364C928.181 226.68 929.196 227.664 929.587 228.934C934.765 245.721 936.063 262.507 933.479 279.294C930.791 296.421 924.912 311.868 915.842 325.636C906.771 339.404 894.845 350.822 880.063 359.889C865.617 368.62 849.156 373.153 830.679 373.489C818.585 375.168 806.155 375.168 793.389 373.489C780.623 372.146 768.697 368.955 757.61 363.918C746.524 358.545 737.118 351.158 729.391 341.755C722 332.352 717.633 320.599 716.289 306.495C715.617 294.406 715.113 281.813 714.777 268.716C714.441 255.62 714.105 241.012 713.769 224.893C713.769 208.439 713.769 189.969 713.769 169.485C714.105 148.665 714.441 124.654 714.777 97.4538C714.105 91.745 714.273 86.0362 715.281 80.3275C716.625 74.2829 718.304 68.7421 720.32 63.7049C723.344 54.9739 727.039 46.9145 731.406 39.5267C736.11 32.1389 741.653 25.5906 748.036 19.8818C751.731 17.1953 755.763 15.0126 760.13 13.3335C764.497 11.3187 769.033 9.63965 773.736 8.29641C789.189 3.25927 804.475 1.24443 819.593 2.25186C834.71 3.25927 848.82 6.78527 861.922 12.8298C875.36 18.5386 887.454 26.2622 898.204 36.0007C908.955 45.7391 917.521 56.9887 923.904 69.7495C930.287 82.1744 934.151 95.7747 935.495 110.55C936.777 124.647 935.001 139.049 930.167 153.756C929.732 155.081 928.616 156.068 927.249 156.342C915.571 158.684 904.042 159.539 892.661 158.907C881.761 157.973 870.428 156.462 858.662 154.374C856.991 154.077 855.693 152.75 855.462 151.069C854.681 145.398 854.147 139.112 853.859 132.21C853.859 124.151 853.019 116.763 851.34 110.047C849.66 102.995 846.468 97.2858 841.765 92.9203C837.398 88.5548 830.343 86.5399 820.601 86.8757C816.233 87.5474 811.53 88.3869 806.491 89.3943Z" fill="white"/>
<path d="M1117.14 167.974C1119.49 177.712 1121.34 185.436 1122.69 191.144L1160.47 367.388C1160.48 367.425 1160.48 367.464 1160.48 367.502C1160.48 367.761 1160.3 367.985 1160.04 368.034C1150.08 369.982 1139.14 370.625 1127.22 369.963C1115.15 369.628 1103.75 368.289 1093.02 365.948C1092.98 365.938 1092.93 365.933 1092.89 365.933C1092.62 365.933 1092.39 365.771 1092.3 365.525C1090.33 360.238 1088.37 353.994 1086.4 346.792C1084.72 339.404 1082.88 331.848 1080.86 324.125C1079.18 316.401 1077.33 309.013 1075.32 301.961C1073.55 295.796 1071.66 290.401 1069.65 285.776C1069.11 284.552 1067.97 283.701 1066.65 283.518C1063.3 283.053 1060.64 282.82 1058.69 282.82C1056.34 282.82 1054.15 282.82 1052.14 282.82C1050.52 282.82 1048.6 282.975 1046.37 283.284C1046.18 283.31 1046 283.324 1045.81 283.324C1044.33 283.324 1042.44 283.324 1040.14 283.324C1038.55 283.324 1037.1 284.261 1036.52 285.737C1034.59 290.578 1032.91 296.154 1031.48 302.465C1030.13 309.517 1028.62 317.073 1026.94 325.132C1025.6 332.856 1024.09 340.412 1022.41 347.799C1020.78 354.927 1018.54 361.273 1015.67 366.837C1015.47 367.212 1015.06 367.423 1014.71 367.65C1014.68 367.664 1014.66 367.68 1014.64 367.696C1014.43 367.84 1014.29 367.948 1014.04 367.948C1013.97 367.948 1013.8 367.957 1013.73 367.974C1010.97 368.619 1004.29 368.611 993.682 367.948C982.931 367.276 966.134 367.108 943.29 367.444C942.576 367.444 942.405 366.516 942.567 365.821C943.265 362.83 944.346 356.655 945.809 347.296C947.489 336.55 949.841 322.614 952.864 305.487C955.888 288.361 959.415 268.716 963.446 246.553C967.814 224.054 972.853 200.211 978.564 175.026C984.275 149.84 990.49 123.647 997.209 96.4463C1003.72 70.0722 1010.87 43.856 1018.65 17.7976C1019.09 16.3039 1020.37 15.1938 1021.92 15.0568C1023.52 14.9154 1025.2 14.8447 1026.94 14.8447C1029.63 14.8447 1033.16 14.8447 1037.52 14.8447C1041.89 14.8447 1047.43 14.8447 1054.15 14.8447C1060.46 14.5447 1068.37 13.9766 1077.89 13.1405C1079.88 12.9657 1081.7 14.2798 1082.14 16.2291C1083.1 20.4216 1084.35 26.0047 1085.9 32.9784C1088.25 41.7094 1090.6 51.7837 1092.95 63.2012C1095.64 74.2829 1098.33 86.2041 1101.02 98.9649C1104.04 111.726 1106.9 123.983 1109.58 135.736C1112.27 147.489 1114.79 158.235 1117.14 167.974ZM1052.14 224.39C1057.02 224.133 1061.91 223.974 1066.79 223.914C1069.19 223.884 1071.04 221.796 1070.76 219.42C1067.61 192.677 1064.76 171.667 1062.22 156.388C1059.86 140.269 1057.68 129.356 1055.66 123.647C1053.98 117.938 1052.14 116.763 1050.12 120.121C1048.44 123.143 1046.76 129.524 1045.08 139.262C1043.74 149 1042.06 161.257 1040.04 176.033C1038.5 189.569 1036.68 204.092 1034.58 219.601C1034.27 221.912 1035.98 224.005 1038.31 224.105C1042.73 224.295 1047.34 224.39 1052.14 224.39Z" fill="white"/>
<path d="M1246.5 12.8298C1281.93 12.5049 1316.42 14.0665 1349.96 17.5145C1351.91 17.7142 1353.42 19.2932 1353.51 21.2435C1354.03 31.5189 1354.13 43.1541 1353.83 56.1492C1353.83 68.9152 1353.18 80.7626 1351.86 91.6913C1351.59 93.993 1349.39 95.5313 1347.09 95.2073C1341.55 94.4248 1335.06 94.1662 1327.63 94.4314C1318.22 94.7673 1305.62 95.271 1289.83 95.9426H1289.14C1288.69 95.9426 1288.33 96.2862 1288.07 96.6549C1287.95 96.832 1287.82 97.0718 1287.82 97.2887C1287.82 97.3102 1287.82 97.3328 1287.82 97.3565C1287.82 97.4211 1287.81 97.485 1287.8 97.5484C1287.47 99.233 1287.14 101.888 1286.81 105.513C1286.81 108.871 1286.81 114.412 1286.81 122.136C1286.81 129.524 1286.81 139.43 1286.81 151.855C1287.15 163.944 1287.48 179.727 1287.82 199.204C1288.15 218.345 1288.49 241.516 1288.83 268.716C1289.16 295.581 1289.67 327.315 1290.34 363.918C1290.34 364.5 1289.92 364.996 1289.34 365.087C1283.56 366.005 1277.17 366.623 1270.18 366.941C1263.13 366.941 1255.9 366.941 1248.51 366.941C1241.46 366.941 1234.4 366.941 1227.35 366.941C1221.69 366.941 1216.36 367.264 1211.35 367.912C1209.28 368.18 1207.49 366.86 1207.46 364.775C1207.41 361.721 1207.49 356.902 1207.69 350.318C1208.03 339.572 1208.2 323.621 1208.2 302.465C1208.53 280.973 1208.37 253.605 1207.69 220.36C1207.36 187.234 1206.19 147.273 1204.19 100.477C1204.18 100.154 1204.04 99.8454 1203.81 99.6167C1203.71 99.5186 1203.6 99.4369 1203.48 99.3758C1199.48 97.4176 1194.5 96.2732 1188.55 95.9426C1182.5 95.271 1176.45 94.9352 1170.4 94.9352C1164.36 94.5993 1158.81 94.4314 1153.78 94.4314C1149.88 94.4314 1146.89 94.2307 1144.8 93.8291C1143.76 93.6288 1142.92 92.8886 1142.64 91.8657C1142.15 90.0888 1141.66 87.2502 1141.18 83.3498C1140.84 77.9768 1140.51 71.5964 1140.17 64.2086C1140.17 56.485 1140.17 48.2577 1140.17 39.5267C1140.17 30.7956 1140.51 22.4004 1141.18 14.341C1141.18 14.1017 1141.09 13.9477 1140.92 13.8789C1140.79 13.8266 1140.67 13.8499 1140.67 13.7101C1140.67 13.5713 1140.78 13.3324 1140.92 13.3311C1175.11 12.9969 1210.3 12.8298 1246.5 12.8298Z" fill="white"/>
<path d="M200.041 21.8967C204.95 21.8967 209.661 22.1946 214.173 22.7906C216.385 23.0828 217.84 25.2017 217.417 27.3927C211.917 55.893 205.957 83.7801 199.537 111.054C193.154 139.598 186.435 167.974 179.38 196.182C172.325 224.39 165.103 252.765 157.712 281.309C150.569 308.572 143.112 336.305 135.341 364.508C134.863 366.243 133.285 367.442 131.489 367.547C129.003 367.693 125.818 367.995 121.933 368.452C116.222 369.123 109.839 369.459 102.784 369.459C95.3934 369.459 87.8346 369.123 80.1078 368.452C73.6532 368.158 67.9672 367.353 63.0499 366.035C61.7387 365.684 60.7391 364.64 60.3773 363.332C45.5221 309.595 33.2859 254.55 23.6686 198.196C13.9261 140.773 6.70327 83.0139 2 24.919C2 24.5939 2.1123 24.2765 2.34145 24.046C4.48673 21.888 8.74023 20.332 15.102 19.3781C21.8209 18.3707 29.0438 17.867 36.7706 17.867C44.4974 17.5312 51.8882 17.5312 58.9431 17.867C64.1981 18.1171 68.2415 18.4604 71.0733 18.8969C72.6011 19.1323 73.7575 20.341 74.0014 21.8674C75.0875 28.6656 75.7792 38.7496 76.0764 52.1195C76.4124 67.2309 77.2523 85.3646 78.5961 106.521C79.9398 127.677 82.1235 151.015 85.147 176.537C87.8369 196.971 91.6036 217.944 96.4471 239.455C97.3701 243.554 103.065 243.53 103.987 239.431C108.702 218.48 112.669 199.027 115.886 181.07C119.918 158.235 123.445 137.247 126.469 118.106C129.492 98.9649 132.348 81.3349 135.035 65.2161C137.691 49.2868 140.839 34.3414 144.48 20.3798C144.566 20.0488 144.565 19.693 144.697 19.3771C144.785 19.1656 144.939 19.0209 145.161 18.9429C145.451 18.8404 145.769 18.9104 146.07 18.9796C151.639 20.2616 157.367 21.066 163.255 21.393C169.302 21.393 175.349 21.393 181.396 21.393C187.779 21.393 193.994 21.5609 200.041 21.8967Z" stroke="black" stroke-width="3"/>
<path d="M411.003 39.0229C420.746 47.754 427.632 57.9962 431.664 69.7495C434.015 74.7866 435.695 79.9917 436.703 85.3646C438.047 90.4017 439.055 95.6068 439.727 100.98C440.398 109.375 440.734 117.77 440.734 126.165C441.07 134.225 441.07 142.452 440.734 150.847C439.727 168.645 439.391 185.939 439.727 202.73C440.062 219.52 439.559 236.647 438.215 254.109L436.703 270.731C436.031 282.485 434.183 294.406 431.16 306.495C428.136 318.248 423.601 328.994 417.554 338.733C411.843 346.792 404.284 353.34 394.878 358.377C385.807 363.079 376.064 366.773 365.65 369.459C356.244 372.146 346.669 373.825 336.927 374.496C327.52 375.168 317.946 375.168 308.203 374.496C301.148 373.825 294.261 372.817 287.542 371.474C281.159 370.467 274.944 368.62 268.897 365.933C263.186 363.247 257.979 359.889 253.276 355.859C248.572 351.493 244.709 345.952 241.685 339.236C236.982 330.841 233.791 321.942 232.111 312.539C230.767 302.801 229.927 293.063 229.591 283.324C228.583 257.131 227.408 230.938 226.064 204.745C225.056 178.216 225.392 151.687 227.072 125.158C227.408 110.047 229.255 94.9352 232.615 79.8238C236.31 64.3765 243.365 50.7763 253.78 39.0229C257.139 35.6648 261.002 32.6426 265.37 29.9561C276.456 24.5832 288.382 20.7214 301.148 18.3707C314.25 15.6842 327.184 14.6768 339.95 15.3484C353.052 16.02 365.65 18.3707 377.744 22.4004C390.174 26.0943 401.261 31.6351 411.003 39.0229ZM377.744 216.834V192.656L376.736 158.403C376.736 158.067 376.4 154.709 375.729 148.329C375.393 141.613 375.057 135.4 374.721 129.691C374.049 120.289 371.361 111.726 366.658 104.002C362.291 96.2784 356.244 90.5696 348.517 86.8757C341.798 84.1893 334.911 83.6855 327.856 85.3646C320.801 87.0436 314.586 89.898 309.211 93.9277C297.453 102.995 289.558 114.58 285.527 128.684C282.839 141.445 281.159 154.877 280.487 168.981C280.151 183.085 280.319 197.189 280.991 211.293C282.671 223.046 283.847 235.135 284.519 247.56C285.184 259.531 287.167 271.008 290.468 281.991C290.533 282.208 290.616 282.419 290.719 282.62C294.073 289.19 298.893 294.294 305.18 297.932C311.563 301.626 318.449 303.808 325.84 304.48C333.231 304.816 340.622 303.808 348.013 301.458C355.404 298.771 361.619 294.574 366.658 288.865C369.681 284.835 371.865 281.645 373.209 279.294C374.553 276.608 375.393 273.754 375.729 270.731C376.064 267.709 376.064 264.183 375.729 260.153C375.729 255.788 376.064 250.079 376.736 243.027C377.072 236.311 377.24 230.434 377.24 225.397C377.576 220.36 377.744 217.506 377.744 216.834Z" stroke="black" stroke-width="3"/>
<path d="M628.898 30.9635C638.976 38.6871 647.039 47.4182 653.086 57.1566C660.477 68.5742 666.524 80.4954 671.227 92.9203C676.266 105.009 680.298 117.77 683.321 131.203C685.001 136.575 686.009 141.948 686.345 147.321C687.017 152.359 687.521 157.564 687.857 162.937C687.185 178.72 686.513 194.67 685.841 210.789C685.505 226.548 683.83 242.14 680.816 257.564C680.806 257.611 680.803 257.659 680.799 257.707C680.789 257.829 680.753 257.925 680.692 257.995C680.534 258.175 680.298 258.271 680.298 258.51C680.298 258.557 680.29 258.665 680.275 258.71C673.558 278.498 664.327 297.28 652.582 315.058C641.504 332.32 629.794 348.634 617.452 364C616.722 364.909 615.63 365.45 614.465 365.485C592.895 366.129 571.166 366.614 549.278 366.941C526.813 366.941 505.017 366.941 483.89 366.941C483.812 366.941 483.809 366.9 483.754 366.955C483.582 367.127 483.217 367.1 483.183 366.859C479.535 340.513 477.21 313.34 476.21 285.339C475.202 256.795 474.698 227.916 474.698 198.7C474.698 169.485 474.866 140.102 475.202 110.55C475.869 80.8635 475.874 51.508 475.215 22.4839C475.207 22.1087 475.418 21.7215 475.584 21.3849C475.745 21.0581 475.85 20.7446 476.108 20.4871C476.175 20.4199 476.243 20.3526 476.31 20.2854C476.574 20.0213 476.905 19.8337 477.268 19.7444C486.503 17.4722 496.06 16.0068 505.941 15.3484C516.355 14.341 526.77 14.0052 537.184 14.341C547.599 14.341 557.845 14.5089 567.923 14.8447C578.138 15.174 588.029 15.1804 597.597 14.8637C597.97 14.8513 598.342 14.8898 598.703 14.9833C609.255 17.7136 619.32 23.0404 628.898 30.9635ZM599.67 249.072C602.358 246.049 604.71 243.027 606.725 240.005C612.436 231.274 616.468 221.703 618.819 211.293C621.507 200.883 621.507 189.465 618.819 177.04C617.812 172.003 616.636 166.798 615.292 161.425C613.948 155.717 611.932 150.344 609.245 145.307C606.893 140.269 603.87 135.904 600.174 132.21C596.57 128.28 592.007 125.307 586.485 123.294C586.206 123.192 585.916 123.125 585.622 123.092C580.032 122.454 573.965 122.136 567.419 122.136C560.754 121.803 554.42 122.296 548.416 123.615C548.319 123.636 548.22 123.647 548.121 123.647C547.369 123.647 546.759 124.257 546.759 125.009V125.662C547.43 134.729 547.766 144.467 547.766 154.877C547.766 165.287 547.598 176.201 547.263 187.618C546.927 198.7 546.759 210.118 546.759 221.871C546.759 232.746 547.063 243.62 547.673 254.495C547.731 255.539 548.186 256.536 549.026 257.159C552.58 259.79 557.199 260.956 562.884 260.657C569.375 260.333 575.552 259.851 581.416 259.214C581.825 259.169 582.238 259.194 582.646 259.247C583.951 259.416 585.149 259.265 586.241 258.794C586.462 258.699 586.664 258.569 586.859 258.429C588.048 257.574 589.364 256.846 590.807 256.245C591.004 256.163 591.196 256.069 591.378 255.958C594.619 253.98 597.383 251.685 599.67 249.072Z" stroke="black" stroke-width="3"/>
<path d="M806.491 89.3943C801.787 90.4017 798.092 92.2487 795.404 94.9352C794.733 95.6068 794.061 96.7821 793.389 98.4612C793.053 99.8044 792.717 100.812 792.381 101.483C791.709 102.491 791.037 108.368 790.365 119.113C790.029 129.859 789.693 142.62 789.357 157.396C789.021 172.171 788.853 187.618 788.853 203.737C788.853 219.52 789.357 233.289 790.365 245.042C791.373 254.78 793.893 264.351 797.924 273.754C802.24 282.713 809.179 288.557 818.743 291.287C818.972 291.352 819.208 291.395 819.446 291.415C826.701 292.022 833.469 291.004 839.75 288.361C846.468 285.339 851.508 280.47 854.867 273.754C858.563 266.03 860.074 257.97 859.402 249.575C859.116 242.131 859.562 234.808 860.741 227.608C861.084 225.513 863.062 224.132 865.177 224.307C868.855 224.611 872.809 224.638 877.04 224.39C883.087 224.054 889.134 223.886 895.181 223.886C901.228 223.886 907.107 224.054 912.818 224.39C918.003 224.677 922.693 225.336 926.89 226.364C928.181 226.68 929.196 227.664 929.587 228.934C934.765 245.721 936.063 262.507 933.479 279.294C930.791 296.421 924.912 311.868 915.842 325.636C906.771 339.404 894.845 350.822 880.063 359.889C865.617 368.62 849.156 373.153 830.679 373.489C818.585 375.168 806.155 375.168 793.389 373.489C780.623 372.146 768.697 368.955 757.61 363.918C746.524 358.545 737.118 351.158 729.391 341.755C722 332.352 717.633 320.599 716.289 306.495C715.617 294.406 715.113 281.813 714.777 268.716C714.441 255.62 714.105 241.012 713.769 224.893C713.769 208.439 713.769 189.969 713.769 169.485C714.105 148.665 714.441 124.654 714.777 97.4538C714.105 91.745 714.273 86.0362 715.281 80.3275C716.625 74.2829 718.304 68.7421 720.32 63.7049C723.344 54.9739 727.039 46.9145 731.406 39.5267C736.11 32.1389 741.653 25.5906 748.036 19.8818C751.731 17.1953 755.763 15.0126 760.13 13.3335C764.497 11.3187 769.033 9.63965 773.736 8.29641C789.189 3.25927 804.475 1.24443 819.593 2.25186C834.71 3.25927 848.82 6.78527 861.922 12.8298C875.36 18.5386 887.454 26.2622 898.204 36.0007C908.955 45.7391 917.521 56.9887 923.904 69.7495C930.287 82.1744 934.151 95.7747 935.495 110.55C936.777 124.647 935.001 139.049 930.167 153.756C929.732 155.081 928.616 156.068 927.249 156.342C915.571 158.684 904.042 159.539 892.661 158.907C881.761 157.973 870.428 156.462 858.662 154.374C856.991 154.077 855.693 152.75 855.462 151.069C854.681 145.398 854.147 139.112 853.859 132.21C853.859 124.151 853.019 116.763 851.34 110.047C849.66 102.995 846.468 97.2858 841.765 92.9203C837.398 88.5548 830.343 86.5399 820.601 86.8757C816.233 87.5474 811.53 88.3869 806.491 89.3943Z" stroke="black" stroke-width="3"/>
<path d="M1117.14 167.974C1119.49 177.712 1121.34 185.436 1122.69 191.144L1160.47 367.388C1160.48 367.425 1160.48 367.464 1160.48 367.502C1160.48 367.761 1160.3 367.985 1160.04 368.034C1150.08 369.982 1139.14 370.625 1127.22 369.963C1115.15 369.628 1103.75 368.289 1093.02 365.948C1092.98 365.938 1092.93 365.933 1092.89 365.933C1092.62 365.933 1092.39 365.771 1092.3 365.525C1090.33 360.238 1088.37 353.994 1086.4 346.792C1084.72 339.404 1082.88 331.848 1080.86 324.125C1079.18 316.401 1077.33 309.013 1075.32 301.961C1073.55 295.796 1071.66 290.401 1069.65 285.776C1069.11 284.552 1067.97 283.701 1066.65 283.518C1063.3 283.053 1060.64 282.82 1058.69 282.82C1056.34 282.82 1054.15 282.82 1052.14 282.82C1050.52 282.82 1048.6 282.975 1046.37 283.284C1046.18 283.31 1046 283.324 1045.81 283.324C1044.33 283.324 1042.44 283.324 1040.14 283.324C1038.55 283.324 1037.1 284.261 1036.52 285.737C1034.59 290.578 1032.91 296.154 1031.48 302.465C1030.13 309.517 1028.62 317.073 1026.94 325.132C1025.6 332.856 1024.09 340.412 1022.41 347.799C1020.78 354.927 1018.54 361.273 1015.67 366.837C1015.47 367.212 1015.06 367.423 1014.71 367.65C1014.68 367.664 1014.66 367.68 1014.64 367.696C1014.43 367.84 1014.29 367.948 1014.04 367.948C1013.97 367.948 1013.8 367.957 1013.73 367.974C1010.97 368.619 1004.29 368.611 993.682 367.948C982.931 367.276 966.134 367.108 943.29 367.444C942.576 367.444 942.405 366.516 942.567 365.821C943.265 362.83 944.346 356.655 945.809 347.296C947.489 336.55 949.841 322.614 952.864 305.487C955.888 288.361 959.415 268.716 963.446 246.553C967.814 224.054 972.853 200.211 978.564 175.026C984.275 149.84 990.49 123.647 997.209 96.4463C1003.72 70.0722 1010.87 43.856 1018.65 17.7976C1019.09 16.3039 1020.37 15.1938 1021.92 15.0568C1023.52 14.9154 1025.2 14.8447 1026.94 14.8447C1029.63 14.8447 1033.16 14.8447 1037.52 14.8447C1041.89 14.8447 1047.43 14.8447 1054.15 14.8447C1060.46 14.5447 1068.37 13.9766 1077.89 13.1405C1079.88 12.9657 1081.7 14.2798 1082.14 16.2291C1083.1 20.4216 1084.35 26.0047 1085.9 32.9784C1088.25 41.7094 1090.6 51.7837 1092.95 63.2012C1095.64 74.2829 1098.33 86.2041 1101.02 98.9649C1104.04 111.726 1106.9 123.983 1109.58 135.736C1112.27 147.489 1114.79 158.235 1117.14 167.974ZM1052.14 224.39C1057.02 224.133 1061.91 223.974 1066.79 223.914C1069.19 223.884 1071.04 221.796 1070.76 219.42C1067.61 192.677 1064.76 171.667 1062.22 156.388C1059.86 140.269 1057.68 129.356 1055.66 123.647C1053.98 117.938 1052.14 116.763 1050.12 120.121C1048.44 123.143 1046.76 129.524 1045.08 139.262C1043.74 149 1042.06 161.257 1040.04 176.033C1038.5 189.569 1036.68 204.092 1034.58 219.601C1034.27 221.912 1035.98 224.005 1038.31 224.105C1042.73 224.295 1047.34 224.39 1052.14 224.39Z" stroke="black" stroke-width="3"/>
<path d="M1246.5 12.8298C1281.93 12.5049 1316.42 14.0665 1349.96 17.5145C1351.91 17.7142 1353.42 19.2932 1353.51 21.2435C1354.03 31.5189 1354.13 43.1541 1353.83 56.1492C1353.83 68.9152 1353.18 80.7626 1351.86 91.6913C1351.59 93.993 1349.39 95.5313 1347.09 95.2073C1341.55 94.4248 1335.06 94.1662 1327.63 94.4314C1318.22 94.7673 1305.62 95.271 1289.83 95.9426H1289.14C1288.69 95.9426 1288.33 96.2862 1288.07 96.6549C1287.95 96.832 1287.82 97.0718 1287.82 97.2887C1287.82 97.3102 1287.82 97.3328 1287.82 97.3565C1287.82 97.4211 1287.81 97.485 1287.8 97.5484C1287.47 99.233 1287.14 101.888 1286.81 105.513C1286.81 108.871 1286.81 114.412 1286.81 122.136C1286.81 129.524 1286.81 139.43 1286.81 151.855C1287.15 163.944 1287.48 179.727 1287.82 199.204C1288.15 218.345 1288.49 241.516 1288.83 268.716C1289.16 295.581 1289.67 327.315 1290.34 363.918C1290.34 364.5 1289.92 364.996 1289.34 365.087C1283.56 366.005 1277.17 366.623 1270.18 366.941C1263.13 366.941 1255.9 366.941 1248.51 366.941C1241.46 366.941 1234.4 366.941 1227.35 366.941C1221.69 366.941 1216.36 367.264 1211.35 367.912C1209.28 368.18 1207.49 366.86 1207.46 364.775C1207.41 361.721 1207.49 356.902 1207.69 350.318C1208.03 339.572 1208.2 323.621 1208.2 302.465C1208.53 280.973 1208.37 253.605 1207.69 220.36C1207.36 187.234 1206.19 147.273 1204.19 100.477C1204.18 100.154 1204.04 99.8454 1203.81 99.6167C1203.71 99.5186 1203.6 99.4369 1203.48 99.3758C1199.48 97.4176 1194.5 96.2732 1188.55 95.9426C1182.5 95.271 1176.45 94.9352 1170.4 94.9352C1164.36 94.5993 1158.81 94.4314 1153.78 94.4314C1149.88 94.4314 1146.89 94.2307 1144.8 93.8291C1143.76 93.6288 1142.92 92.8886 1142.64 91.8657C1142.15 90.0888 1141.66 87.2502 1141.18 83.3498C1140.84 77.9768 1140.51 71.5964 1140.17 64.2086C1140.17 56.485 1140.17 48.2577 1140.17 39.5267C1140.17 30.7956 1140.51 22.4004 1141.18 14.341C1141.18 14.1017 1141.09 13.9477 1140.92 13.8789C1140.79 13.8266 1140.67 13.8499 1140.67 13.7101C1140.67 13.5713 1140.78 13.3324 1140.92 13.3311C1175.11 12.9969 1210.3 12.8298 1246.5 12.8298Z" stroke="black" stroke-width="3"/>
</g>
<defs>
<filter id="filter0_d_41_30" x="0.5" y="0.5" width="1355" height="388" filterUnits="userSpaceOnUse" color-interpolation-filters="sRGB">
<feFlood flood-opacity="0" result="BackgroundImageFix"/>
<feColorMatrix in="SourceAlpha" type="matrix" values="0 0 0 0 0 0 0 0 0 0 0 0 0 0 0 0 0 0 127 0" result="hardAlpha"/>
<feOffset dy="12"/>
<feComposite in2="hardAlpha" operator="out"/>
<feColorMatrix type="matrix" values="0 0 0 0 0 0 0 0 0 0 0 0 0 0 0 0 0 0 1 0"/>
<feBlend mode="normal" in2="BackgroundImageFix" result="effect1_dropShadow_41_30"/>
<feBlend mode="normal" in="SourceGraphic" in2="effect1_dropShadow_41_30" result="shape"/>
</filter>
</defs>
</svg>
